<svg width="1481" height="866" viewBox="0 0 1481 866" fill="none" xmlns="http://www.w3.org/2000/svg">
<path d="M1438.43 446.78C1438.43 677.81 1128.4 865.79 747.292 865.79C366.186 865.79 56.1602 677.81 56.1602 446.78C56.1602 215.751 366.186 27.771 747.292 27.771C1128.4 27.771 1438.43 215.751 1438.43 446.78Z" fill="#FFE600"/>
<path d="M517.421 314.765C517.421 314.765 509.858 321.939 514.395 327.678C524.981 340.593 558.253 347.768 593.037 340.593C612.697 336.289 639.918 316.199 664.115 297.544C691.337 277.455 718.559 255.93 745.781 248.755C774.516 240.145 792.664 244.451 804.762 247.321C818.373 251.626 833.496 260.235 859.206 277.455C906.088 310.459 1096.64 468.306 1129.91 495.57C1155.62 484.091 1273.58 436.737 1433.89 402.298C1420.28 321.94 1368.86 247.321 1290.22 187.053C1181.33 230.102 1046.73 253.062 915.161 192.793C915.161 192.793 844.083 161.222 773.004 162.657C668.653 165.527 624.796 207.142 576.402 253.061L517.421 314.765Z" fill="white"/>
<path d="M1122.35 512.788C1120.84 511.353 898.527 327.677 848.621 291.803C819.886 271.714 803.249 265.974 786.614 263.104C777.54 261.669 765.441 263.105 756.367 265.975C733.682 271.715 701.925 291.804 674.703 311.893C645.969 333.418 620.258 353.508 596.061 357.813C564.302 364.988 526.495 356.378 509.859 344.898C502.298 340.593 497.761 334.854 494.736 329.114C488.687 314.764 500.785 303.284 502.298 301.849L562.791 238.71L583.964 218.62C564.303 221.49 546.154 225.796 528.007 230.101C505.322 235.841 484.15 241.579 462.978 241.579C453.904 241.579 405.509 234.405 396.435 231.535C340.479 217.186 292.083 202.837 219.492 171.268C133.289 232.971 74.3094 309.024 57.6738 393.687C69.7724 396.557 90.9442 402.296 98.5059 403.731C295.108 445.345 355.602 488.394 367.7 497.004C379.799 484.089 396.434 476.914 416.094 476.914C437.267 476.914 456.927 486.96 469.025 502.744C479.612 494.135 496.249 486.96 515.909 486.96C524.983 486.96 534.055 488.394 544.642 491.264C567.327 498.439 577.914 512.789 583.964 525.703C591.525 522.833 600.598 519.963 611.184 519.963C621.771 519.963 632.358 522.833 644.457 527.138C680.752 541.488 686.801 575.928 683.777 601.757H691.338C735.196 601.757 769.979 634.761 769.979 676.375C769.979 689.289 766.954 700.77 760.905 710.814C773.004 716.554 801.738 730.903 828.96 728.033C850.132 725.163 857.693 719.423 860.718 715.118C862.23 712.248 865.255 709.379 862.23 706.509L806.275 647.675C806.275 647.675 797.2 639.065 800.225 636.195C803.25 633.325 809.299 637.631 813.836 640.501C842.571 663.46 875.841 696.465 875.841 696.465C875.841 696.465 878.866 700.77 890.965 703.64C901.551 705.074 921.211 703.638 934.822 693.594C937.847 690.724 942.384 687.854 943.896 684.984C957.507 667.765 942.384 650.545 942.384 650.545L877.353 581.667C877.353 581.667 868.281 573.057 871.305 570.187C874.33 567.317 880.378 571.623 884.915 574.493C906.087 590.277 934.823 618.977 962.045 644.806C968.094 649.111 992.291 663.459 1024.05 643.37C1043.71 630.455 1048.25 616.106 1046.73 604.627C1045.22 590.277 1033.12 578.796 1033.12 578.796L945.408 494.135C945.408 494.135 936.335 486.959 939.36 482.654C942.385 479.785 948.433 484.09 952.969 486.96C981.704 509.919 1057.32 575.927 1057.32 575.927C1058.83 575.927 1084.54 594.582 1117.81 574.493C1129.91 567.318 1137.47 557.273 1137.47 544.359C1138.99 525.704 1122.35 512.788 1122.35 512.788Z" fill="white"/>
<path d="M694.363 620.41C680.752 620.41 665.628 627.585 664.116 627.585C662.604 627.585 664.116 621.846 665.628 618.976C667.14 616.106 685.289 564.447 641.431 545.793C608.16 531.443 586.987 547.227 580.938 554.402C579.426 555.837 577.914 555.837 577.914 554.402C577.914 545.792 573.377 519.963 543.13 511.353C500.785 498.439 475.075 527.139 467.514 537.183C464.489 514.224 444.83 497.004 419.12 497.004C391.898 497.004 370.725 517.092 370.725 542.922C370.725 568.751 391.898 588.842 419.12 588.842C432.731 588.842 443.317 584.537 452.391 575.927V577.361C450.878 588.841 446.341 630.456 491.711 646.24C509.859 653.415 524.983 647.675 538.594 639.066C543.131 636.196 543.13 637.63 543.13 640.5C541.618 650.545 543.131 673.504 577.914 686.418C603.624 696.463 618.746 686.419 627.82 677.809C632.357 673.504 633.87 674.94 633.87 680.68C635.382 710.814 662.604 735.208 694.363 735.208C727.634 735.208 754.856 709.378 754.856 677.809C754.856 646.24 727.634 620.41 694.363 620.41Z" fill="white"/>
<path d="M1131.42 491.264C1063.37 435.3 906.086 304.719 862.229 274.584C838.032 257.365 821.397 247.32 806.274 244.45C800.224 243.015 791.15 240.145 779.051 240.145C768.465 240.145 756.367 241.58 744.269 245.885C717.047 254.495 689.825 274.585 662.603 294.674L661.091 296.109C636.894 314.763 611.184 333.418 591.524 337.723C582.45 339.158 574.888 340.592 565.814 340.592C544.641 340.592 524.982 334.853 517.42 326.243C515.908 324.808 517.419 321.938 520.444 319.068L580.937 257.365C627.819 212.882 671.677 171.266 774.515 168.397H779.051C842.569 168.397 906.087 195.661 913.648 198.53C974.141 225.795 1034.63 240.145 1096.64 240.145C1161.67 240.145 1228.21 224.361 1297.78 194.227C1290.22 188.487 1281.14 181.311 1273.58 175.571C1211.58 201.401 1154.11 212.88 1096.64 212.88C1039.17 212.88 981.704 199.966 925.748 174.137C922.723 172.702 853.155 141.132 779.051 141.132H773.003C686.801 142.567 638.406 171.266 606.647 197.096C574.889 197.096 547.667 205.706 523.47 211.446C502.297 217.185 482.636 221.491 464.489 221.491H441.804C420.631 221.491 314.768 197.097 231.59 165.527C222.516 171.267 214.955 177.006 205.881 182.746C293.596 217.185 400.971 243.015 434.242 245.885C443.316 245.885 453.902 247.32 464.489 247.32C487.173 247.32 508.346 241.581 531.031 235.841C544.642 232.971 558.252 228.665 571.863 225.795L559.764 237.276L499.271 300.414C494.734 304.719 484.148 317.633 490.197 331.983C493.222 337.723 499.271 343.462 506.833 349.202C521.956 357.812 547.666 364.988 571.863 364.988C580.937 364.988 590.01 363.552 597.572 362.117C623.282 356.377 650.504 336.289 677.726 314.764C700.411 297.544 732.169 276.019 756.366 268.844C763.928 267.409 771.489 265.975 779.051 265.975H785.101C801.736 267.41 816.86 273.15 845.594 293.24C895.5 329.114 1117.81 512.788 1119.32 514.223C1119.32 514.223 1132.94 525.704 1132.94 545.793C1132.94 555.838 1125.37 565.883 1114.79 573.058C1105.71 578.798 1095.13 581.667 1086.05 581.667C1070.93 581.667 1060.34 574.493 1060.34 574.493C1060.34 574.493 983.216 508.483 955.994 485.524C951.457 481.219 946.92 478.349 942.383 478.349C939.358 478.349 937.846 479.785 936.333 481.22C931.796 486.96 936.334 494.134 942.383 498.439L1031.61 583.102C1031.61 583.102 1042.2 593.146 1043.71 606.061C1043.71 620.411 1037.66 631.891 1022.54 640.501C1011.95 647.675 1001.36 650.545 990.777 650.545C977.166 650.545 968.092 644.805 965.068 643.37L951.456 631.891C928.772 610.367 904.576 587.407 886.428 574.493C881.891 571.623 877.353 567.318 872.816 567.318C871.304 567.318 868.279 567.317 866.767 570.187C865.254 571.622 863.742 575.927 868.279 583.102C869.791 585.972 872.816 587.408 872.816 587.408L937.845 656.285C937.845 656.285 951.458 672.069 939.359 684.984L936.333 687.855L930.284 693.594C919.697 702.203 904.574 703.639 898.525 703.639H889.452C883.402 702.204 878.865 700.769 875.84 697.899C872.816 693.594 839.545 663.46 812.323 641.935C809.299 639.065 804.761 636.195 800.224 636.195C798.712 636.195 795.687 637.631 794.174 639.066C789.637 644.806 797.199 653.415 800.224 656.285L856.181 713.683C856.181 713.683 856.18 715.119 854.667 717.989C853.155 720.859 845.595 726.598 825.935 729.468H818.373C797.2 729.468 776.026 719.423 763.928 713.683C768.465 703.639 771.489 692.16 771.489 680.68C771.489 637.631 735.195 603.192 689.825 603.192H686.8C688.312 583.102 685.288 545.794 644.456 530.009C632.357 525.704 621.77 522.834 609.671 522.834C600.597 522.834 593.037 524.268 583.963 527.138C574.889 511.353 561.277 499.875 543.129 494.135C532.542 491.265 523.468 489.829 512.882 489.829C496.247 489.829 481.123 494.134 467.512 504.179C460.943 496.503 452.639 490.326 443.216 486.103C433.793 481.881 423.49 479.722 413.069 479.785C394.921 479.785 376.774 486.959 364.675 498.439C348.04 485.524 279.984 445.345 96.9928 405.166C87.9188 403.731 68.2594 397.992 56.1608 393.687C54.6484 402.297 53.1354 412.342 51.623 422.386C51.623 422.386 84.8953 429.561 92.4569 430.996C278.473 469.74 340.478 511.354 351.064 518.528C348.04 527.138 346.526 535.749 346.526 544.359C346.526 581.668 378.285 610.367 416.093 610.367C420.63 610.367 425.167 610.367 429.704 608.932C435.754 636.196 453.902 656.286 482.636 666.331C491.71 669.201 499.271 670.634 506.833 670.634C511.37 670.634 517.42 670.635 523.47 669.2C528.007 682.115 540.104 697.898 567.326 707.943C576.399 712.248 585.474 713.683 594.548 713.683C602.11 713.683 609.672 712.25 615.721 709.38C627.82 738.079 658.066 758.167 691.337 758.167C714.022 758.167 735.195 749.558 750.318 733.773C763.929 740.948 791.151 753.863 819.885 753.863H830.47C859.205 750.993 871.303 739.514 877.352 732.339C878.865 730.904 878.866 729.468 880.378 728.033C886.427 729.468 893.989 730.904 903.063 730.904C918.186 730.904 933.309 726.598 948.433 715.118C963.556 705.073 974.141 690.724 974.141 677.809C978.678 679.244 984.728 679.244 989.265 679.244C1004.39 679.244 1021.02 674.939 1036.15 664.894C1064.88 647.675 1069.42 623.282 1069.42 608.932C1073.96 610.367 1080 610.367 1084.54 610.367C1099.67 610.367 1114.79 606.061 1128.4 597.452C1146.55 585.972 1157.13 570.188 1158.65 551.533C1160.16 538.619 1155.62 525.703 1149.57 514.223C1197.97 494.133 1306.85 456.824 1436.91 428.125C1436.91 418.08 1435.4 409.47 1432.38 399.426C1276.61 430.995 1160.16 478.349 1131.42 491.264ZM694.361 730.904C664.115 730.904 639.918 707.943 638.406 679.244C638.406 676.374 638.406 670.634 632.356 670.634C629.332 670.634 627.819 672.071 624.795 673.505C618.745 679.245 609.671 684.984 597.572 684.984C591.523 684.984 585.474 683.55 579.425 680.68C547.666 667.766 546.154 647.676 547.666 639.066C547.666 636.196 547.667 634.761 546.154 633.326L544.641 631.891H543.129C541.616 631.891 540.104 631.89 537.079 634.76C528.005 640.5 518.932 643.37 509.858 643.37C505.321 643.37 499.272 641.936 494.735 640.501C452.39 624.716 455.414 587.407 458.439 575.927C458.439 573.057 458.439 571.622 456.927 570.187L453.901 567.318L450.877 570.187C441.803 577.362 431.217 581.667 420.631 581.667C396.434 581.667 376.773 563.012 376.773 540.053C376.773 517.094 396.434 498.439 420.631 498.439C441.803 498.439 461.464 514.223 464.489 534.313L466 545.793L472.05 535.747C472.05 534.312 490.198 508.484 523.47 509.919C529.519 509.919 535.567 511.353 543.129 512.788C568.838 519.963 573.375 542.924 573.375 551.533C573.375 557.273 577.913 557.272 577.913 557.272C579.425 557.272 582.449 555.838 582.449 554.403C586.986 550.098 597.574 541.488 614.209 541.488C621.771 541.488 629.332 542.923 638.406 547.228C679.239 564.447 661.091 613.236 661.091 614.67C658.066 623.28 656.554 626.15 661.091 629.02H664.115C665.627 629.02 668.652 629.02 671.676 627.586C677.726 626.151 685.288 623.282 692.849 623.282C723.096 623.282 748.805 647.675 748.805 676.375C750.317 707.944 724.608 730.904 694.361 730.904Z" fill="#2D3277"/>
</svg>
